<svg width="72" height="71" viewBox="0 0 72 71" fill="none" xmlns="http://www.w3.org/2000/svg">
<ellipse cx="36" cy="35.5" rx="36" ry="35.5" fill="#85BF80"/>
<path fill-rule="evenodd" clip-rule="evenodd" d="M24.5893 18.4909C24.2053 19.0541 24 19.719 24 20.3996V50.6008C24 52.4781 25.5293 54 27.4158 54C28.0997 54 28.7679 53.7957 29.3338 53.4135L51.3929 38.5175C53.0674 37.3867 53.5038 35.1191 52.3675 33.4527C52.1072 33.071 51.7765 32.7418 51.3929 32.4828L29.3338 17.5868C27.7728 16.5327 25.6486 16.9374 24.5893 18.4909ZM26 50.656V20.3441C26 20.075 26.0813 19.8121 26.2335 19.5895C26.6531 18.9753 27.4946 18.8152 28.1131 19.232L50.2969 34.1826C50.4647 34.2957 50.6094 34.4394 50.7233 34.6061C51.2204 35.3337 51.0295 36.3238 50.2969 36.8175L28.1131 51.7681C27.8889 51.9192 27.6242 52 27.3532 52C26.6059 52 26 51.3983 26 50.656Z" fill="#FBFBFD"/>
</svg>
